<svg xmlns="http://www.w3.org/2000/svg" viewBox="0 0 200 80" fill="none">
  <rect width="200" height="80" fill="#1a1f25"/>
  <rect x="12" y="12" width="40" height="14" rx="2" fill="#374151"/>
  <rect x="12" y="30" width="50" height="6" rx="1" fill="#4b5563"/>
  <rect x="12" y="40" width="45" height="6" rx="1" fill="#4b5563"/>
  <rect x="80" y="12" width="30" height="8" rx="1" fill="#6b7280"/>
  <rect x="80" y="24" width="25" height="5" rx="1" fill="#4b5563"/>
  <rect x="80" y="32" width="28" height="5" rx="1" fill="#4b5563"/>
  <rect x="80" y="40" width="22" height="5" rx="1" fill="#4b5563"/>
  <rect x="130" y="12" width="30" height="8" rx="1" fill="#6b7280"/>
  <rect x="130" y="24" width="25" height="5" rx="1" fill="#4b5563"/>
  <rect x="130" y="32" width="28" height="5" rx="1" fill="#4b5563"/>
  <rect x="130" y="40" width="22" height="5" rx="1" fill="#4b5563"/>
  <line x1="12" y1="60" x2="188" y2="60" stroke="#374151" stroke-width="1"/>
  <rect x="12" y="66" width="80" height="6" rx="1" fill="#4b5563"/>
</svg>
